<?xml version="1.0" encoding="UTF-8" standalone="no"?>
<!-- Created with Inkscape (http://www.inkscape.org/) -->

<svg
   width="297mm"
   height="210mm"
   viewBox="0 0 297 210"
   version="1.1"
   id="svg1"
   xml:space="preserve"
   inkscape:version="1.3 (0e150ed6c4, 2023-07-21)"
   sodipodi:docname="speaking.svg"
   xmlns:inkscape="http://www.inkscape.org/namespaces/inkscape"
   xmlns:sodipodi="http://sodipodi.sourceforge.net/DTD/sodipodi-0.dtd"
   xmlns="http://www.w3.org/2000/svg"
   xmlns:svg="http://www.w3.org/2000/svg"><sodipodi:namedview
     id="namedview1"
     pagecolor="#ffffff"
     bordercolor="#000000"
     borderopacity="0.25"
     inkscape:showpageshadow="2"
     inkscape:pageopacity="0.0"
     inkscape:pagecheckerboard="0"
     inkscape:deskcolor="#d1d1d1"
     inkscape:document-units="mm"
     inkscape:zoom="0.76791526"
     inkscape:cx="535.2153"
     inkscape:cy="386.76142"
     inkscape:window-width="1848"
     inkscape:window-height="1058"
     inkscape:window-x="-6"
     inkscape:window-y="1043"
     inkscape:window-maximized="1"
     inkscape:current-layer="layer1" /><defs
     id="defs1" /><g
     inkscape:label="Layer 1"
     inkscape:groupmode="layer"
     id="layer1"><path
       style="fill:#000000"
       d="m 89.089308,207.20608 c -1.915503,-0.0289 -11.318883,-0.16037 -20.896399,-0.29211 -43.254923,-0.595 -66.2842768,-1.29744 -66.2842768,-2.02179 0,-0.32344 1.2798866,-0.42967 8.4821408,-0.70404 l 7.246332,-0.27605 v -28.94175 -28.94175 l -1.067289,-0.0682 -1.06729,-0.0683 0.05352,-3.58271 c 0.02943,-1.9705 0.115812,-4.92129 0.19195,-6.55733 0.129702,-2.78701 0.165297,-2.96612 0.564387,-2.83989 0.41682,0.13184 0.425954,-0.56851 0.425954,-32.66052 V 67.456384 l 3.924418,-0.162931 c 2.158429,-0.08961 4.067749,-0.108118 4.242933,-0.04112 0.260765,0.09972 0.344297,1.353026 0.460709,6.912431 0.262886,12.554389 0.584971,39.626216 0.584649,49.140876 l -3.18e-4,9.43405 5.898177,0.10005 c 3.243998,0.055 5.924357,0.0829 5.956354,0.0619 0.032,-0.021 -0.244941,-0.63346 -0.615418,-1.36103 -0.985876,-1.93615 -1.368849,-3.6642 -1.509002,-6.8089 -0.199357,-4.47308 0.350748,-8.05701 4.175936,-27.206244 2.54401,-12.735535 2.527882,-12.636889 3.276573,-20.04081 1.441359,-14.253826 2.913406,-17.632035 10.196332,-23.399606 1.082169,-0.857003 1.594524,-1.472942 2.184467,-2.626105 0.972044,-1.900057 1.513524,-2.275029 3.096372,-2.144218 l 1.197476,0.09896 0.147648,-7.852665 c 0.08121,-4.318966 0.147804,-9.389314 0.147994,-11.26744 l 3.45e-4,-3.414775 h 9.437084 9.437083 l 3.1e-4,11.251964 3.1e-4,11.251963 -3.506288,-0.07208 c -2.751199,-0.05656 -3.469123,-0.01215 -3.333709,0.2062 0.09492,0.153053 0.236235,1.354209 0.314036,2.669234 l 0.141456,2.390955 2.637361,5.303638 c 2.888857,5.809388 2.993023,5.937878 5.195388,6.408611 2.389442,0.51072 5.458652,0.955247 21.582117,3.125836 9.14498,1.231124 17.89114,2.41921 19.4359,2.64019 l 2.80865,0.401781 0.0596,6.432371 0.0596,6.432371 h -0.76463 c -0.42055,0 -6.2613,-0.29817 -12.97944,-0.662601 -6.71814,-0.364431 -15.349264,-0.82079 -19.180269,-1.014131 -3.831006,-0.193342 -7.142412,-0.389557 -7.358678,-0.436034 -0.216267,-0.04648 -0.393212,-0.03787 -0.393212,0.01913 0,0.057 4.637113,4.859038 10.304695,10.671201 5.66758,5.812163 10.634354,10.947494 11.037254,11.411854 l 0.73256,0.84429 -2.76631,3.41019 c -4.070264,5.01764 -5.247544,6.39992 -5.415374,6.35838 -0.30186,-0.0747 -17.552247,-15.71545 -21.265586,-19.281265 -1.493575,-1.434238 -2.143707,-1.926769 -2.271436,-1.72081 -0.193791,0.312481 -1.06073,5.452165 -1.855501,11.000405 -0.531849,3.7128 -0.689177,9.76177 -0.338034,12.99679 l 0.183314,1.68884 7.119191,0.73942 c 10.19592,1.05897 12.882109,1.53806 15.289772,2.72701 3.39954,1.67874 5.15166,3.9757 6.209974,8.14105 0.75872,2.98619 0.95733,5.11692 1.38956,14.90811 0.31255,7.07998 0.38066,12.7634 0.34133,28.48339 -0.0312,12.49245 -0.13129,19.85392 -0.27493,20.23042 -0.12419,0.32552 -0.42286,0.64321 -0.66371,0.70598 -0.36971,0.0964 -0.25554,0.26206 0.73295,1.06384 0.64398,0.52234 1.49994,1.11902 1.90212,1.32595 0.59897,0.30817 3.07686,0.7753 4.26816,0.80463 0.20642,0.005 0.28087,0.63011 0.28087,2.35807 0,2.22195 0.0253,2.35116 0.46119,2.35116 h 0.4612 l -0.0369,-42.88062 -0.0369,-42.88062 h -3.6823 -3.68229 v -3.47122 -3.47122 l 53.19594,0.0565 53.19594,0.0564 v 3.24684 c 0,1.9056 -0.0928,3.31479 -0.22469,3.41134 -0.12358,0.0905 -1.59837,0.16606 -3.2773,0.16794 l -3.0526,0.003 -0.14865,30.06122 c -0.0818,16.53367 -0.21596,35.82994 -0.29823,42.88061 l -0.14958,12.81941 h 0.59835 c 0.51612,0 0.59835,-0.0931 0.59835,-0.67731 0,-0.51641 0.13343,-0.72785 0.56173,-0.89013 0.79929,-0.30284 0.77957,-1.37369 -0.0351,-1.90564 l -0.59683,-0.38971 0.15753,-8.52824 c 0.0866,-4.69053 0.1939,-8.5645 0.23836,-8.60881 0.0445,-0.0443 0.79827,0.39484 1.67511,0.9759 1.5599,1.0337 1.59427,1.077 1.59427,2.009 0,1.73643 0.86721,6.00119 1.70532,8.38639 l 0.82614,2.35116 -0.12803,2.91095 -0.12803,2.91096 3.4685,0.0742 3.46849,0.0742 v -7.04746 -7.04745 l -0.61791,-0.15379 c -2.02247,-0.50336 -8.69386,-4.52019 -10.85813,-6.53765 l -1.13308,-1.05621 0.15825,-21.73328 c 0.1045,-14.35187 0.23607,-21.78356 0.38738,-21.88134 0.12602,-0.0814 0.69269,-0.21304 1.25925,-0.29245 1.70276,-0.23865 6.84389,-1.24806 6.96344,-1.3672 0.11714,-0.11674 -3.76046,0.071 -5.20307,0.25188 -0.46343,0.0581 -0.8426,0.0236 -0.8426,-0.0768 0,-0.49463 1.51898,-2.13865 2.70557,-2.92831 2.31904,-1.54327 5.60264,-1.92048 11.89009,-1.36592 l 2.57462,0.22708 1.24516,-0.84438 c 2.31116,-1.56728 18.08718,-13.429 19.26413,-14.48437 1.26617,-1.13537 1.71762,-2.06848 2.52183,-5.21237 0.79114,-3.0928 1.13684,-5.62865 1.37958,-10.11981 0.29391,-5.437972 0.66509,-7.736887 1.69733,-10.512513 1.11285,-2.992377 2.17755,-4.827891 3.7781,-6.513326 l 1.36482,-1.437201 -1.02397,0.690516 c -3.59688,2.425569 -6.03036,8.096455 -6.51025,15.171228 -0.50331,7.420086 -1.01693,10.780046 -2.26195,14.797116 -0.49726,1.60438 -1.14832,2.2798 -4.74925,4.92693 l -2.30652,1.69558 -0.0701,-0.80786 c -0.0386,-0.44431 0.23903,-2.44234 0.6169,-4.44006 0.37786,-1.99771 0.88878,-5.01702 1.13537,-6.70956 0.52617,-3.61145 0.46414,-4.09338 -1.02118,-7.93379 -1.67526,-4.331545 -2.12147,-5.977628 -2.12147,-7.826166 0,-2.842968 1.15681,-5.630396 4.44894,-10.720086 1.52296,-2.354521 3.92673,-5.526507 4.73518,-6.248476 0.79611,-0.710953 0.54368,-2.766883 -0.65557,-5.339367 l -0.28706,-0.615779 h -3.55918 -3.55918 l 0.0563,-10.299567 0.0563,-10.299568 8.81918,-7.37e-4 8.81918,-7.38e-4 v 8.474548 c 0,8.603045 0.15077,12.645859 0.46441,12.452686 0.0954,-0.05876 0.23831,0.574253 0.31758,1.40669 0.23436,2.461103 0.28743,2.600153 1.17625,3.082283 2.21172,1.199708 6.02359,8.114298 7.17779,13.020252 0.6004,2.551959 0.54488,8.074707 -0.12458,12.393307 -0.65239,4.208518 -1.11566,6.286368 -2.64311,11.854948 -1.23724,4.51054 -1.25345,4.60889 -1.10715,6.71759 0.30807,4.44023 0.83587,9.47223 1.26183,12.03025 1.05637,6.34381 0.15881,12.41613 -2.23722,15.13568 -1.06405,1.20772 -3.22323,2.55976 -4.92379,3.08321 -1.29174,0.3976 -2.65223,0.50257 -10.14485,0.78274 -4.75919,0.17796 -9.10806,0.37874 -9.66418,0.44617 -3.0579,0.37081 -4.49385,0.63275 -4.49385,0.81976 0,0.11537 0.11029,0.14184 0.24507,0.0588 0.13479,-0.083 4.86176,-0.23747 10.50438,-0.34323 5.64261,-0.10576 11.01764,-0.30092 11.94449,-0.43369 4.54867,-0.6516 8.38622,-4.37021 9.77091,-9.46808 l 0.40695,-1.49823 h 1.20246 1.20246 v -0.9614 c 0,-0.52877 0.14966,-3.87916 0.33257,-7.44533 0.44533,-8.68223 1.59608,-33.822532 2.0187,-44.102429 0.18734,-4.556765 0.40509,-9.229024 0.48389,-10.382798 l 0.14327,-2.097771 1.01376,0.138474 c 0.55757,0.07616 2.22839,0.138473 3.71294,0.138473 h 2.69917 l -0.15109,3.974574 c -0.20527,5.399917 -0.52124,14.505871 -0.92656,26.702417 -0.50764,15.27551 -1.00313,27.52604 -1.24528,30.78896 -0.11882,1.60102 -0.21629,3.03572 -0.21659,3.18821 -3e-4,0.15417 0.2239,0.25358 0.50502,0.22392 0.3591,-0.0379 0.49674,0.0588 0.47513,0.33382 -0.0167,0.21293 -0.15014,3.53814 -0.29648,7.38935 -0.14633,3.8512 -0.30379,7.12133 -0.3499,7.26694 -0.0461,0.14562 -0.41826,0.29677 -0.82699,0.33588 l -0.74313,0.0711 -0.0535,1.79136 c -0.0294,0.98524 -0.20829,6.82955 -0.3975,12.98734 -0.50042,16.28628 -1.00412,33.27262 -1.00701,33.9597 l -0.002,0.59567 3.65125,0.0276 c 4.16452,0.0315 12.03662,0.39053 13.15718,0.60002 3.15166,0.58922 -4.94829,1.07135 -27.70602,1.64913 -39.18155,0.99476 -52.6109,1.12314 -112.00919,1.07082 -29.96836,-0.0264 -56.055156,-0.0717 -57.97066,-0.10056 z m 26.894272,-3.54271 -0.12762,-0.78372 h 32.2052 c 27.90263,0 32.22188,-0.0433 32.33003,-0.32417 0.20065,-0.52109 1.23407,-0.93943 3.55972,-1.44103 4.22557,-0.91136 5.8789,-1.68431 8.13756,-3.80438 1.55545,-1.46002 2.86353,-2.49153 3.15956,-2.49153 0.0808,0 0.0878,2.16642 0.0157,4.81427 l -0.13119,4.81428 h 0.82729 0.82729 l -0.14795,-23.79147 c -0.0814,-13.08531 -0.21402,-32.38158 -0.29477,-42.88062 l -0.1468,-19.08915 h -40.35345 l -40.35346,-1e-5 0.0573,42.88062 c 0.0422,31.59719 0.12387,42.88063 0.31026,42.88063 0.1636,0 0.20787,-0.27685 0.12533,-0.78372 z m 77.36303,-27.4578 c -4.62923,-3.48337 -9.73318,-9.32632 -11.9074,-13.63146 -1.82773,-3.61908 -3.23854,-8.91691 -3.51881,-13.21374 -0.13481,-2.06679 -0.12149,-2.15034 0.45077,-2.8281 0.39816,-0.47156 1.48454,-1.09837 3.34488,-1.92992 2.6834,-1.19944 12.0002,-4.76204 12.8336,-4.90736 0.40219,-0.0701 0.42074,0.57621 0.53543,18.64901 0.0681,10.73026 0.0341,18.77265 -0.0796,18.84112 -0.10911,0.0657 -0.85561,-0.3751 -1.65888,-0.97955 z M 53.02246,203.30878 c 8.030716,-0.12933 14.6263,-0.26005 14.656853,-0.2905 0.03055,-0.0304 -0.245145,-12.44286 -0.612662,-27.58314 -0.367517,-15.14027 -0.668903,-27.89929 -0.669747,-28.35336 l -0.0015,-0.82558 -15.110568,-0.0133 c -8.310812,-0.007 -17.952615,-0.0794 -21.426228,-0.16029 l -6.31566,-0.14699 -0.155998,9.15893 c -0.0858,5.03742 -0.301472,16.2628 -0.479273,24.94528 -0.177802,8.68249 -0.324182,17.58955 -0.325289,19.79348 l -0.002,4.00714 7.920409,-0.14826 c 4.356225,-0.0815 14.490996,-0.25409 22.521712,-0.38342 z m 212.08731,-3.84391 c 0.12428,-3.95768 0.59568,-38.15969 0.59023,-42.82463 l -0.002,-2.01528 -19.73852,0.11196 c -15.94357,0.0904 -19.80759,0.16909 -20.0977,0.40909 -0.45846,0.37927 -0.97715,1.96556 -1.28354,3.92538 -0.18366,1.17481 -0.61952,19.96834 -0.66678,28.75052 l -0.006,1.17644 -0.97666,0.26032 -0.97665,0.26031 -0.14622,4.49712 c -0.0804,2.47341 -0.14648,5.51748 -0.1468,6.76459 l -5.9e-4,2.26747 10.95376,0.17038 c 6.02456,0.0937 14.49266,0.24023 18.81799,0.32561 4.32533,0.0854 9.14236,0.17232 10.70452,0.19321 l 2.84028,0.038 z m -183.806253,3.49388 c 1.681015,-0.14161 1.719095,-0.15818 1.719095,-0.74813 0,-0.33182 0.146966,-1.08997 0.326592,-1.68477 0.179626,-0.5948 0.285106,-1.14835 0.234399,-1.23011 -0.293756,-0.47367 -3.248272,-48.06076 -3.256561,-52.45199 -6.77e-4,-0.35877 -0.344894,-0.39186 -4.076365,-0.39186 h -4.075626 l 0.153926,7.55729 c 0.290901,14.28236 0.576594,29.74042 0.728365,39.40986 l 0.152008,9.68453 h 3.187536 c 1.753145,0 3.961129,-0.0652 4.906631,-0.14482 z m 144.083103,-63.8543 c 2.94796,-1.89692 6.2457,-3.90671 9.97748,-6.08073 8.62805,-5.02644 13.3315,-8.14867 15.5323,-10.31059 1.24863,-1.22658 1.71063,-1.91375 2.86171,-4.25646 1.76619,-3.59457 2.77513,-6.70675 4.72035,-14.56036 1.8568,-7.496593 2.39825,-10.09173 2.70742,-12.976499 0.1254,-1.16998 0.29558,-2.379146 0.37818,-2.687036 0.10119,-0.37714 0.0759,-0.486735 -0.0774,-0.33588 -0.35585,0.350038 -0.8663,2.150112 -1.74616,6.157792 -1.29016,5.876544 -3.66717,15.073263 -4.74295,18.350613 -0.54379,1.65666 -1.56036,4.17576 -2.25905,5.59799 -1.04131,2.11966 -1.53812,2.8497 -2.75558,4.04916 -1.74099,1.71525 -6.7977,5.11239 -13.15827,8.83984 -6.12668,3.59038 -7.75516,4.6187 -10.11116,6.38477 -3.21493,2.40994 -4.07674,3.59688 -1.32682,1.82739 z M 104.09263,110.216 c -0.3158,-0.12478 0.23429,-0.86244 2.95217,-3.95884 l 3.34029,-3.80549 4.62624,0.0648 4.62624,0.0648 -3.49654,3.9098 -3.49653,3.90981 -4.08188,-0.0157 c -2.24504,-0.009 -4.25653,-0.0847 -4.46999,-0.16908 z m 126.77762,-4.20664 c -5.62066,-1.00103 -11.74975,-2.64716 -16.9854,-4.56189 -3.1973,-1.16928 -12.42966,-5.205594 -14.24685,-6.228612 -1.71261,-0.964134 -2.85885,-2.010838 -3.66944,-3.350786 -0.93218,-1.540928 -6.7711,-12.181365 -6.9748,-12.710366 -0.12627,-0.327933 -0.004,-0.354764 1.03754,-0.227037 3.36095,0.412301 3.13754,0.332385 4.32711,1.547852 1.55851,1.592448 4.1616,5.116873 5.96089,8.070664 l 1.51225,2.482586 1.99275,0.621546 c 2.54365,0.793379 17.09499,4.390598 21.62797,5.346628 l 3.45738,0.729179 2.38463,-0.493962 c 1.31154,-0.271679 2.73852,-0.492559 3.17105,-0.490844 0.87345,0.0035 0.60817,-0.482257 2.82408,5.170892 1.00663,2.56806 1.18159,3.65746 0.62591,3.89728 -0.45814,0.19774 -6.14754,0.35672 -7.04507,0.19687 z M 125.48948,78.017301 v -3.486799 l 1.82781,-1.937711 c 1.0053,-1.065741 3.19984,-3.575123 4.87676,-5.576405 l 3.04896,-3.638695 h 2.20105 c 1.21058,0 2.20105,0.05251 2.20105,0.116691 0,0.06418 -1.60176,2.558086 -3.55947,5.542012 -1.95771,2.983927 -4.14169,6.332196 -4.85329,7.440598 -1.86674,2.90767 -3.05093,4.015597 -5.12496,4.794927 l -0.61791,0.232181 z m 93.58474,1.483133 c -0.0762,-0.122866 -0.158,-9.347158 -0.18178,-20.498427 l -0.0432,-20.275035 0.47841,-0.119666 c 0.26313,-0.06582 0.76868,-0.08661 1.12346,-0.0462 l 0.64506,0.07346 0.0163,20.37669 c 0.0114,14.270871 -0.0559,20.425986 -0.22469,20.541202 -0.35652,0.24334 -1.65345,0.206136 -1.81355,-0.05203 z m 3.03302,-19.799104 c 0,-9.411347 -0.0648,-17.296119 -0.144,-17.521714 -0.0792,-0.225596 0.45163,0.160215 1.17963,0.857357 1.93895,1.856758 4.56766,3.640605 6.38427,4.332384 0.87671,0.333856 2.72562,0.83441 4.1087,1.112344 l 2.51468,0.505334 0.0584,10.442163 c 0.0558,9.973193 0.04,10.442164 -0.3509,10.442164 -0.22511,0 -1.21194,0.208907 -2.19297,0.464237 -3.9812,1.036183 -7.31029,2.778407 -9.87157,5.16612 -0.77356,0.721134 -1.46941,1.311153 -1.54635,1.311153 -0.0769,0 -0.13989,-7.700194 -0.13989,-17.111542 z m -36.03471,14.173086 c -0.47806,-0.680183 -0.46536,-1.609202 0.0277,-2.029989 0.21626,-0.184547 1.75821,-0.817933 3.42656,-1.407524 1.66834,-0.589591 5.40947,-2.076214 8.31362,-3.303606 9.00652,-3.80646 9.29878,-3.901485 9.87428,-3.210434 0.14715,0.176689 0.23536,0.655317 0.19604,1.063618 -0.0715,0.742008 -0.0733,0.743044 -3.77893,2.144105 -3.91666,1.480846 -5.13362,1.991866 -12.11444,5.087018 -5.16168,2.28858 -5.44529,2.367621 -5.94488,1.656812 z m 69.2105,-6.052731 c -0.0803,-1.127322 -0.14599,-5.812841 -0.14599,-10.412265 v -8.362588 h 0.76275 c 0.41952,0 1.40535,0.197868 2.19075,0.439707 6.55125,2.017254 9.6019,8.476445 6.75648,14.305617 -0.72452,1.484261 -2.65031,3.51206 -4.17815,4.399465 -1.38602,0.805029 -3.78645,1.679741 -4.60964,1.679741 h -0.63021 z m -38.76826,-0.331082 c -1.90021,-0.943661 -3.71291,-2.77726 -4.68663,-4.740666 -0.79652,-1.606094 -0.84317,-1.818533 -0.84317,-3.839026 0,-1.942972 0.066,-2.27776 0.72095,-3.655644 0.91818,-1.931748 2.59829,-3.606996 4.72784,-4.714159 l 1.62902,-0.846937 v 9.192917 c 0,5.056104 -0.0813,9.192916 -0.18058,9.192916 -0.0993,0 -0.71466,-0.26523 -1.36743,-0.589401 z M 95.597194,60.534984 c -0.12662,-2.784461 0.0569,-44.094601 0.1965,-44.233725 0.22732,-0.22654 1.43927,-0.301734 1.75262,-0.10874 0.12572,0.07743 0.19865,8.891125 0.18417,22.257187 l -0.024,22.128989 -1.05057,0.06825 c -0.57781,0.03754 -1.05425,-0.01284 -1.05876,-0.11196 z m 25.709486,-4.65186 c -3.95901,-2.750935 -6.80687,-4.580437 -11.19093,-7.189183 -2.59153,-1.542097 -2.86087,-1.852126 -2.36988,-2.727937 0.63705,-1.136373 1.09687,-0.963878 6.50899,2.441801 2.78057,1.749724 6.82503,4.246714 8.9877,5.548866 3.66861,2.208893 3.93677,2.415434 4.00154,3.082087 0.0827,0.851197 -0.58312,1.63662 -1.3874,1.63662 -0.31569,0 -2.16346,-1.133942 -4.55002,-2.792254 z M 93.573767,56.08175 C 92.149749,54.622954 89.180025,52.425934 87.815895,51.822041 86.172963,51.094724 83.589866,50.277789 81.52882,49.833678 l -1.764249,-0.380157 -0.05099,-11.284398 -0.05099,-11.284398 0.612724,-0.123877 c 1.985072,-0.401332 5.190034,-1.286599 6.353676,-1.754998 2.221309,-0.894141 3.768492,-1.937112 5.980384,-4.031434 l 2.097254,-1.985773 v 19.059648 c 0,10.482807 -0.0295,19.059649 -0.0656,19.059649 -0.0361,0 -0.51634,-0.461785 -1.067287,-1.02619 z M 205.36765,54.97613 c -0.12358,-0.04465 -2.65137,-0.341213 -5.61731,-0.659034 -12.65352,-1.355912 -15.02578,-1.690409 -15.4476,-2.178167 -0.21627,-0.250071 -0.39322,-0.622619 -0.39322,-0.827884 0,-0.632094 0.66769,-1.368534 1.24077,-1.368534 0.29767,0 3.50223,0.446724 7.12125,0.992721 3.61902,0.545998 8.40004,1.156868 10.6245,1.357489 4.22294,0.380864 5.05558,0.624007 5.05558,1.476307 0,0.947169 -0.40825,1.324698 -1.41224,1.305957 -0.52087,-0.0097 -1.04814,-0.05421 -1.17173,-0.09886 z M 56.868662,47.794238 c -2.075378,-0.50044 -4.087111,-1.60615 -5.570627,-3.061788 -5.114158,-5.018054 -3.723279,-13.250299 2.793871,-16.536172 1.397497,-0.704603 3.484563,-1.317494 4.486435,-1.317494 h 0.62687 v 10.636185 10.636184 l -0.505558,-0.01865 c -0.278057,-0.01026 -1.102003,-0.162477 -1.830991,-0.33826 z m 41.657732,-9.271631 c 0,-5.049388 0.0539,-9.180706 0.11981,-9.180706 0.4522,0 2.596906,1.330131 3.495866,2.168107 2.31987,2.162508 3.22537,4.381631 3.08577,7.56238 -0.0782,1.780979 -0.19375,2.279096 -0.82576,3.558483 -0.40419,0.818194 -1.21506,1.978904 -1.80193,2.579354 -1.02824,1.052025 -3.212666,2.486647 -3.792896,2.490988 -0.22016,0.0016 -0.28086,-1.9822 -0.28086,-9.178606 z m 109.200536,5.676539 c -1.66835,-0.803838 -4.49947,-2.10132 -6.29139,-2.883292 -1.79193,-0.781973 -5.28028,-2.380241 -7.75189,-3.551706 -4.99158,-2.365845 -5.35695,-2.684452 -4.45899,-3.888324 0.80374,-1.077567 1.3111,-0.948065 5.75608,1.469234 5.90742,3.212608 8.09062,4.266728 12.63384,6.100018 2.22445,0.897618 4.22946,1.788929 4.45556,1.980692 0.75361,0.639153 0.0499,2.288023 -0.9596,2.248586 -0.19265,-0.0075 -1.71527,-0.67137 -3.38361,-1.475208 z m -91.98734,-7.46199 c -4.93627,-0.104025 -5.62131,-0.162496 -5.83338,-0.49791 -0.16303,-0.257856 -0.16918,-0.581819 -0.0191,-1.007638 l 0.22116,-0.627595 10.43971,-0.183394 10.4397,-0.183395 0.39661,0.488101 c 0.48885,0.601624 0.5019,1.084697 0.0468,1.732182 -0.34513,0.491048 -0.41456,0.496997 -5.2241,0.447589 -2.68087,-0.02754 -7.39121,-0.103113 -10.4674,-0.16794 z M 105.61694,26.605041 c -0.42154,-0.59976 -0.45341,-1.380043 -0.0689,-1.687011 0.15447,-0.123327 2.55587,-0.98293 5.33644,-1.910228 2.78057,-0.927298 7.59096,-2.753245 10.68975,-4.05766 3.09879,-1.304414 5.78786,-2.371663 5.9757,-2.371663 0.90233,0 1.5052,1.704275 0.83248,2.353362 -0.45628,0.440247 -21.37269,8.170863 -22.10757,8.170863 -0.16946,0 -0.46551,-0.223949 -0.65789,-0.497663 z"
       id="path1" /></g></svg>
